#!OML:ASF H:\Terrain\Patient Classification 1\Takeo\Monday\TakeoMonday.ASF
:FULLY-SPECIFIED
:DEGREES
2111
root 10.0584 17.6152 -3.61527 351.772 -33.6259 -355.073
lowerback 9.27783 -0.241601 2.91749
upperback 5.66022 -0.173575 1.33303
thorax 0.668944 -0.0692536 -0.247432
lowerneck -11.318 10.2728 1.98762
upperneck -2.87674 13.524 -8.41989
head 1.78322 6.53252 -2.29773
rclavicle -1.31198e-014 -1.74931e-014
rhumerus 7.15404 43.3925 -98.0123
rradius 45.8083
rwrist -13.6827
rhand -30.6772 4.20247
rfingers 7.12502
rthumb -3.97143 -25.7403
lclavicle -1.31198e-014 -1.74931e-014
lhumerus 19.4703 -6.44467 91.6616
lradius 44.3928
lwrist 49.8977
lhand -37.2803 37.7321
lfingers 7.12502
lthumb -10.345 427.458
rfemur 1.9868 4.20712 16.8192
rtibia 24.8885
rfoot -18.9825 -17.0752
rtoes -3.21944
lfemur -9.35619 5.32361 -17.5604
ltibia 19.1562
lfoot -0.818339 18.6749
ltoes -7.31971
2112
root 10.0338 17.6132 -3.59866 351.227 -32.8208 -354.611
lowerback 9.27751 -0.229625 2.49629
upperback 5.5299 -0.181447 1.20171
thorax 0.531892 -0.0812857 -0.146195
lowerneck -11.3935 10.1772 1.81889
upperneck -2.83569 13.402 -7.8522
head 1.74018 6.48328 -2.09302
rclavicle -6.59965e-014 3.65764e-014
rhumerus 7.2253 43.6554 -98.1302
rradius 45.947
rwrist -14.5143
rhand -30.7022 4.09676
rfingers 7.12502
rthumb -3.99555 -25.8455
lclavicle -6.59965e-014 3.65764e-014
lhumerus 19.3151 -6.56766 91.5171
lradius 44.9945
lwrist 49.192
lhand -36.2237 38.8022
lfingers 7.12502
lthumb -9.32563 428.576
rfemur 2.75455 3.75826 16.3514
rtibia 24.5122
rfoot -18.9156 -17.3703
rtoes -3.29299
lfemur -8.83465 4.91179 -18.118
ltibia 18.7445
lfoot -0.396825 18.3986
ltoes -8.64813
2113
root 10.0073 17.6179 -3.57783 350.932 -32.0278 -354.137
lowerback 8.98577 -0.224431 1.90656
upperback 5.31421 -0.216242 1.21911
thorax 0.466491 -0.111033 0.204455
lowerneck -11.3336 10.1782 1.65215
upperneck -2.88661 13.4122 -7.58489
head 1.67654 6.49807 -1.98517
rclavicle 2.72335e-014 -3.49861e-014
rhumerus 6.69652 44.3522 -98.2115
rradius 46.5197
rwrist -15.2617
rhand -31.6625 4.47075
rfingers 7.12502
rthumb -4.92282 -25.4521
lclavicle 2.72335e-014 -3.49861e-014
lhumerus 19.0646 -6.56604 91.5166
lradius 45.6667
lwrist 48.3982
lhand -35.4894 39.7814
lfingers 7.12502
lthumb -8.61712 429.586
rfemur 3.26328 3.35128 15.8524
rtibia 24.1325
rfoot -18.8691 -17.6309
rtoes -2.71986
lfemur -8.56104 4.40632 -18.6947
ltibia 18.3769
lfoot -0.402139 18.2553
ltoes -7.9888
2114
root 9.98752 17.6254 -3.55555 351.062 -31.2582 -354.279
lowerback 8.51599 -0.184993 2.16897
upperback 5.14319 -0.149766 1.26523
thorax 0.547532 -0.0703666 0.0978841
lowerneck -11.4706 9.97881 1.86409
upperneck -2.70295 13.1391 -7.83485
head 1.78796 6.3468 -2.10577
rclavicle -3.20043e-014 6.36111e-015
rhumerus 6.64972 44.7899 -97.9834
rradius 46.7138
rwrist -16.1061
rhand -32.7622 5.35461
rfingers 7.12502
rthumb -5.98462 -24.5409
lclavicle -3.20043e-014 6.36111e-015
lhumerus 19.0259 -7.0753 91.4795
lradius 46.1241
lwrist 47.784
lhand -34.8788 39.8763
lfingers 7.12502
lthumb -8.02778 429.704
rfemur 3.63662 3.01047 15.9501
rtibia 23.8614
rfoot -19.1057 -17.833
rtoes -1.40395
lfemur -8.39246 3.88721 -18.696
ltibia 17.898
lfoot -0.256656 18.0578
ltoes -7.41672
2115
root 9.96955 17.6307 -3.54232 351.15 -30.595 -354.556
lowerback 8.25422 -0.0542045 2.70466
upperback 4.98638 0.0595724 1.25857
thorax 0.534224 0.0469162 -0.225803
lowerneck -11.4006 9.61789 1.77157
upperneck -2.66592 12.6699 -7.76136
head 1.75343 6.11674 -2.10153
rclavicle 6.22196e-014 1.74931e-014
rhumerus 6.54272 44.1772 -98.0319
rradius 46.8192
rwrist -15.6233
rhand -32.6794 5.66828
rfingers 7.12502
rthumb -5.90467 -24.2294
lclavicle 6.22196e-014 1.74931e-014
lhumerus 18.8769 -7.92505 91.481
lradius 46.8299
lwrist 47.5435
lhand -34.248 39.498
lfingers 7.12502
lthumb -7.41893 429.348
rfemur 4.03768 2.78714 16.2431
rtibia 23.6298
rfoot -19.3596 -18.0852
rtoes -0.311816
lfemur -8.13619 3.49341 -18.5217
ltibia 17.3996
lfoot 0.0201665 17.8065
ltoes -7.53597
2116
root 9.95184 17.6302 -3.52752 351.003 -29.7986 -354.502
lowerback 8.13427 -0.0413086 2.75852
upperback 4.777 0.0860604 1.22138
thorax 0.383977 0.0608108 -0.296616
lowerneck -10.9367 9.39187 1.49463
upperneck -3.07607 12.3663 -7.40646
head 1.47414 5.99586 -1.99388
rclavicle -4.7112e-014 2.06736e-014
rhumerus 5.91652 43.727 -98.4816
rradius 47.3979
rwrist -15.1741
rhand -32.3872 4.97803
rfingers 7.12502
rthumb -5.6226 -24.9274
lclavicle -4.7112e-014 2.06736e-014
lhumerus 18.5936 -8.62932 91.2357
lradius 47.6612
lwrist 47.5251
lhand -34.2706 39.6393
lfingers 7.12502
lthumb -7.44076 429.488
rfemur 4.53256 2.34717 16.1659
rtibia 23.3796
rfoot -19.4905 -18.3143
rtoes -0.276425
lfemur -7.80271 3.1056 -18.702
ltibia 16.9345
lfoot 0.316594 17.4623
ltoes -7.90443
2117
root 9.93187 17.6301 -3.50969 350.743 -28.8883 -354.192
lowerback 7.91137 -0.160297 2.37436
upperback 4.62814 -0.0976587 1.1477
thorax 0.346777 -0.037063 -0.14373
lowerneck -11.1551 9.34283 2.35821
upperneck -2.82823 12.2307 -8.06166
head 1.70457 5.89609 -2.33958
rclavicle -1.39149e-015 -1.11319e-014
rhumerus 5.62933 44.0317 -98.8605
rradius 47.7236
rwrist -15.7321
rhand -32.3896 5.06248
rfingers 7.12502
rthumb -5.62485 -24.8429
lclavicle -1.39149e-015 -1.11319e-014
lhumerus 18.4204 -8.9016 90.8865
lradius 48.5595
lwrist 47.7038
lhand -34.9323 40.3554
lfingers 7.12502
lthumb -8.07941 430.181
rfemur 5.02261 1.81916 15.8081
rtibia 23.1499
rfoot -19.5614 -18.5608
rtoes -0.86977
lfemur -7.44467 2.69665 -19.1873
ltibia 16.4329
lfoot 0.845349 17.0611
ltoes -9.67886
2118
root 9.90547 17.635 -3.48999 350.567 -28.2439 -354.062
lowerback 7.49675 -0.153056 2.16091
upperback 4.60186 -0.111893 1.09495
thorax 0.547296 -0.0449213 -0.0782792
lowerneck -12.5204 9.3166 4.90976
upperneck -1.36917 12.0305 -10.6924
head 2.5581 5.63154 -3.23836
rclavicle -2.22639e-014 1.90833e-014
rhumerus 5.8194 44.3309 -98.8954
rradius 47.6684
rwrist -16.2158
rhand -32.5746 5.86603
rfingers 7.12502
rthumb -5.80349 -24.0345
lclavicle -2.22639e-014 1.90833e-014
lhumerus 18.3269 -9.02167 90.8418
lradius 49.513
lwrist 47.7617
lhand -34.9311 40.6029
lfingers 7.12502
lthumb -8.0783 430.429
rfemur 5.50602 1.55337 15.6818
rtibia 22.9306
rfoot -19.79 -18.6594
rtoes 0.0301752
lfemur -7.01201 2.30741 -19.4223
ltibia 15.8937
lfoot 1.25349 16.9145
ltoes -10.2745
2119
root 9.88065 17.6337 -3.4651 350.329 -27.8521 -354.045
lowerback 7.18845 -0.00820674 2.26271
upperback 4.59716 0.0788035 0.983113
thorax 0.716422 0.0563107 -0.263201
lowerneck -11.9348 9.2597 3.0564
upperneck -2.12806 12.0653 -7.95959
head 2.11138 5.77869 -2.38766
rclavicle 2.47487e-014 2.22639e-014
rhumerus 5.90867 44.3033 -98.8291
rradius 47.9429
rwrist -16.3637
rhand -32.9656 6.10727
rfingers 7.12502
rthumb -6.181 -23.7826
lclavicle 2.47487e-014 2.22639e-014
lhumerus 18.3153 -9.37814 90.7439
lradius 50.099
lwrist 47.1906
lhand -34.605 39.9752
lfingers 7.12502
lthumb -7.76353 429.813
rfemur 6.17743 1.41022 15.6638
rtibia 22.6354
rfoot -20.2105 -18.4375
rtoes 1.51299
lfemur -6.43169 2.03931 -19.4897
ltibia 15.4203
lfoot 1.31381 16.9067
ltoes -8.93346
2120
root 9.86696 17.6319 -3.43971 350.058 -27.1158 -353.993
lowerback 7.02153 0.0278347 2.41926
upperback 4.54586 0.13356 0.887435
thorax 0.757812 0.0892855 -0.45262
lowerneck -11.9294 9.05183 2.42494
upperneck -1.99211 11.8467 -7.01642
head 2.0221 5.69622 -1.98907
rclavicle 3.67752e-015 1.59028e-014
rhumerus 5.87259 44.2577 -98.6506
rradius 48.3801
rwrist -16.5701
rhand -33.4788 6.67581
rfingers 7.12502
rthumb -6.67648 -23.1989
lclavicle 3.67752e-015 1.59028e-014
lhumerus 18.314 -9.84792 90.6742
lradius 50.557
lwrist 46.6262
lhand -34.7269 39.0939
lfingers 7.12502
lthumb -7.88122 428.927
rfemur 6.94605 0.902096 15.5062
rtibia 22.2142
rfoot -20.5453 -18.3004
rtoes 1.55949
lfemur -5.97253 1.53687 -19.7078
ltibia 15.1106
lfoot 1.34295 16.7201
ltoes -8.68757
